<?xml version="1.0" standalone="no"?>
<!DOCTYPE svg PUBLIC "-//W3C//DTD SVG 20010904//EN"
 "http://www.w3.org/TR/2001/REC-SVG-20010904/DTD/svg10.dtd">
<svg version="1.0" xmlns="http://www.w3.org/2000/svg"
 width="1024.000000pt" height="1024.000000pt" viewBox="0 0 1024.000000 1024.000000"
 preserveAspectRatio="xMidYMid meet">
<metadata>
Created by potrace 1.16, written by Peter Selinger 2001-2019
</metadata>
<g transform="translate(0.000000,1024.000000) scale(0.100000,-0.100000)"
fill="#000000" stroke="none">
<path d="M5037 7519 c-26 -17 -56 -42 -67 -56 -10 -14 -288 -298 -617 -631
-826 -838 -916 -932 -936 -974 -15 -32 -17 -82 -17 -501 0 -256 3 -473 6 -482
16 -41 49 -45 369 -45 256 0 312 3 340 15 18 9 80 67 139 130 59 63 112 115
117 115 5 0 9 -385 9 -973 0 -931 1 -975 18 -990 17 -16 80 -17 705 -17 610 0
687 2 701 16 14 14 16 118 16 995 0 538 3 979 6 979 3 0 63 -58 132 -129 l127
-129 220 -6 c385 -10 428 -9 459 15 l26 20 0 481 c0 422 -2 484 -16 514 -25
53 -1571 1646 -1619 1669 -47 22 -65 19 -118 -16z m437 -929 c184 -190 448
-457 586 -595 l250 -250 0 -213 0 -213 -30 21 c-35 25 -263 243 -591 567
l-236 233 -67 0 -67 0 1 -1282 2 -1283 -231 -3 -231 -2 0 1285 0 1285 -42 0
c-40 -1 -49 -7 -140 -93 -496 -473 -750 -711 -780 -728 -17 -9 -18 3 -18 194
l0 204 31 39 c17 22 263 275 547 563 285 287 543 552 576 587 58 63 59 64 81
46 13 -9 174 -172 359 -362z"/>
</g>
</svg>
